<svg xmlns="http://www.w3.org/2000/svg" width="1200" height="630" viewBox="0 0 1200 630">
  <defs>
    <style>
      @font-face {
        font-family: "Geist";
        font-style: normal;
        font-weight: 100 900;
        src: url("fonts/geist-variable.woff2") format("woff2");
      }

      @font-face {
        font-family: "Geist Mono";
        font-style: normal;
        font-weight: 100 900;
        src: url("fonts/geist-mono-variable.woff2") format("woff2");
      }
    </style>
    <linearGradient id="accent" x1="0" y1="0" x2="1" y2="1">
      <stop stop-color="#ff754f"/>
      <stop offset=".48" stop-color="#ff5a2c"/>
      <stop offset="1" stop-color="#3bd8d0"/>
    </linearGradient>
    <radialGradient id="teal" cx="1" cy="0" r="1">
      <stop stop-color="#3bd8d0" stop-opacity=".28"/>
      <stop offset="1" stop-color="#3bd8d0" stop-opacity="0"/>
    </radialGradient>
    <radialGradient id="orange" cx="0" cy="1" r="1">
      <stop stop-color="#ff5a2c" stop-opacity=".24"/>
      <stop offset="1" stop-color="#ff5a2c" stop-opacity="0"/>
    </radialGradient>
  </defs>
  <rect width="1200" height="630" fill="#050505"/>
  <rect width="1200" height="630" fill="url(#teal)"/>
  <rect width="1200" height="630" fill="url(#orange)"/>
  <rect x="60" y="54" width="1080" height="522" rx="32" fill="#101010" stroke="#2d2d2d"/>
  <g transform="translate(110 105)">
    <rect width="70" height="70" rx="20" fill="#161616" stroke="#303030" stroke-width="2"/>
    <path d="M19 16h12c14 0 22 7 22 19S45 54 31 54H19V16Z" fill="none" stroke="url(#accent)" stroke-width="7" stroke-linejoin="round"/>
    <path d="M28 30h14M28 41h9" stroke="#fff" stroke-width="3.5" stroke-linecap="round"/>
    <text x="92" y="49" fill="#fff" font-family="Geist, sans-serif" font-size="35" font-weight="750">develra</text>
  </g>
  <text x="110" y="295" fill="#fff" font-family="Geist, sans-serif" font-size="68" font-weight="600" letter-spacing="-3">Know what your code calls.</text>
  <text x="110" y="358" fill="#a5a5a5" font-family="Geist, sans-serif" font-size="27">Scan external contracts locally. Lock the inventory. Enforce it in CI.</text>
  <g transform="translate(110 425)">
    <rect width="430" height="74" rx="18" fill="#090909" stroke="#363636"/>
    <text x="28" y="47" fill="#3bd8d0" font-family="Geist Mono, monospace" font-size="25">$</text>
    <text x="58" y="47" fill="#eee" font-family="Geist Mono, monospace" font-size="25">npx develra scan</text>
  </g>
  <circle cx="1010" cy="135" r="82" fill="#ff5a2c"/>
  <circle cx="982" cy="108" r="25" fill="#ffd0bd" fill-opacity=".62"/>
  <rect x="925" y="400" width="115" height="115" rx="34" fill="#3bd8d0" transform="rotate(28 982.5 457.5)"/>
  <rect x="1065" y="310" width="58" height="58" rx="17" fill="#a986ff" transform="rotate(43 1094 339)"/>
</svg>
